<?xml version="1.0" encoding="utf-8"?>
<!-- Generator: Adobe Illustrator 16.0.0, SVG Export Plug-In . SVG Version: 6.00 Build 0)  -->
<!DOCTYPE svg PUBLIC "-//W3C//DTD SVG 1.1//EN" "http://www.w3.org/Graphics/SVG/1.1/DTD/svg11.dtd">
<svg version="1.1" id="Layer_1" xmlns="http://www.w3.org/2000/svg" xmlns:xlink="http://www.w3.org/1999/xlink" x="0px" y="0px"
	 width="256px" height="512px" viewBox="0 0 256 512" enable-background="new 0 0 256 512" xml:space="preserve">
<path fill="none" stroke="#000000" stroke-width="3" d="M14.71,192.182v155.246c0,0-2.682,84.224,79.789,84.515
	c52.511,0.161,57.924,0,57.924,0s71.926,0.985,76.71-76.274c4.702-77.258,6.075-163.486,6.075-163.486l-59.047,25.516l-2.02,135.919
	c0,0,5.429,44.148-49.19,45.522c-54.611,1.389-51.209-49.659-50.54-48.949c0.663,0.664-2.036-130.423-2.036-130.423L14.71,192.182z"
	/>
<polygon fill="#FCFCFC" stroke="#000000" stroke-width="3" points="152.423,6.589 94.418,44.209 94.418,121.791 3.504,121.791 
	9.613,175.603 94.773,175.603 94.418,492.977 152.423,456.068 152.423,176.653 236.228,175.603 244.339,122.146 153.474,120.757 "/>
</svg>
