<?xml version="1.0" encoding="UTF-8" standalone="no"?>
<svg
   xmlns:dc="http://purl.org/dc/elements/1.1/"
   xmlns:cc="http://creativecommons.org/ns#"
   xmlns:rdf="http://www.w3.org/1999/02/22-rdf-syntax-ns#"
   xmlns:svg="http://www.w3.org/2000/svg"
   xmlns="http://www.w3.org/2000/svg"
   version="1.1"
   id="svg4264"
   viewBox="0 0 306 270.00001"
   height="3in"
   width="3.4000001in">
  <defs
     id="defs4266" />
  <metadata
     id="metadata4269">
    <rdf:RDF>
      <cc:Work
         rdf:about="">
        <dc:format>image/svg+xml</dc:format>
        <dc:type
           rdf:resource="http://purl.org/dc/dcmitype/StillImage" />
        <dc:title></dc:title>
      </cc:Work>
    </rdf:RDF>
  </metadata>
  <g
     transform="translate(0,-782.36217)"
     id="layer1">
    <g
       transform="matrix(0.05904498,0,0,0.05904498,-1.8858787,784.00268)"
       id="g3351"
       class="Group"
       style="visibility:visible;fill-rule:evenodd">
      <g
         id="g3353"
         class="Drawing">
        <g
           id="g3355">
          <g
             id="g3357"
             style="fill:#000000;stroke:none">
            <path
               id="path3359"
               d="m 108,2742 5080,0 -183,183 -4714,0 -183,-183 z" />
          </g>
          <g
             id="g3361"
             style="fill:none;stroke:none">
            <rect
               id="rect3363"
               height="184"
               width="5081"
               y="2742"
               x="108" />
          </g>
        </g>
      </g>
      <g
         id="g3365"
         class="Drawing">
        <g
           id="g3367">
          <g
             id="g3369"
             style="fill:#000000;stroke:none">
            <path
               id="path3371"
               d="m 291,3016 4714,0 -170,183 -4374,0 -170,-183 z" />
          </g>
          <g
             id="g3373"
             style="fill:none;stroke:none">
            <rect
               id="rect3375"
               height="184"
               width="4715"
               y="3016"
               x="291" />
          </g>
        </g>
      </g>
      <g
         id="g3377"
         class="Drawing">
        <g
           id="g3379">
          <g
             id="g3381"
             style="fill:#000000;stroke:none">
            <path
               id="path3383"
               d="m 474,3290 4348,0 -157,183 -4034,0 -157,-183 z" />
          </g>
          <g
             id="g3385"
             style="fill:none;stroke:none">
            <rect
               id="rect3387"
               height="184"
               width="4349"
               y="3290"
               x="474" />
          </g>
        </g>
      </g>
    </g>
    <g
       transform="matrix(0.05904498,0,0,0.05904498,-1.8858787,784.00268)"
       id="g3389"
       class="Group"
       style="visibility:visible;fill-rule:evenodd">
      <g
         id="g3391"
         class="Drawing">
        <g
           id="g3393">
          <g
             id="g3395"
             style="fill:#000000;stroke:none">
            <path
               id="path3397"
               d="M 4158,4483 1618,94 l 250,67 2357,4073 -67,249 z" />
          </g>
          <g
             id="g3399"
             style="fill:none;stroke:none">
            <rect
               id="rect3401"
               height="4390"
               width="2610"
               y="94"
               x="1617" />
          </g>
        </g>
      </g>
      <g
         id="g3403"
         class="Drawing">
        <g
           id="g3405">
          <g
             id="g3407"
             style="fill:#000000;stroke:none">
            <path
               id="path3409"
               d="M 4305,4188 1948,115 l 244,56 2187,3779 -74,238 z" />
          </g>
          <g
             id="g3411"
             style="fill:none;stroke:none">
            <rect
               id="rect3413"
               height="4075"
               width="2433"
               y="114"
               x="1947" />
          </g>
        </g>
      </g>
      <g
         id="g3415"
         class="Drawing">
        <g
           id="g3417">
          <g
             id="g3419"
             style="fill:#000000;stroke:none">
            <path
               id="path3421"
               d="M 4451,3893 2277,135 l 237,45 2017,3486 -80,227 z" />
          </g>
          <g
             id="g3423"
             style="fill:none;stroke:none">
            <rect
               id="rect3425"
               height="3759"
               width="2256"
               y="135"
               x="2277" />
          </g>
        </g>
      </g>
    </g>
    <g
       transform="matrix(0.05904498,0,0,0.05904498,-1.8858787,784.00268)"
       id="g3427"
       class="Group"
       style="visibility:visible;fill-rule:evenodd">
      <g
         id="g3429"
         class="Drawing">
        <g
           id="g3431">
          <g
             id="g3433"
             style="fill:#000000;stroke:none">
            <path
               id="path3435"
               d="M 3678,94 1138,4483 1071,4234 3427,162 3678,94 Z" />
          </g>
          <g
             id="g3437"
             style="fill:none;stroke:none">
            <rect
               id="rect3439"
               height="4390"
               width="2610"
               y="94"
               x="1070" />
          </g>
        </g>
      </g>
      <g
         id="g3441"
         class="Drawing">
        <g
           id="g3443">
          <g
             id="g3445"
             style="fill:#000000;stroke:none">
            <path
               id="path3447"
               d="M 3348,115 991,4188 918,3950 3105,171 3348,115 Z" />
          </g>
          <g
             id="g3449"
             style="fill:none;stroke:none">
            <rect
               id="rect3451"
               height="4075"
               width="2432"
               y="115"
               x="918" />
          </g>
        </g>
      </g>
      <g
         id="g3453"
         class="Drawing">
        <g
           id="g3455">
          <g
             id="g3457"
             style="fill:#000000;stroke:none">
            <path
               id="path3459"
               d="M 3019,136 845,3893 765,3666 2782,180 3019,136 Z" />
          </g>
          <g
             id="g3461"
             style="fill:none;stroke:none">
            <rect
               id="rect3463"
               height="3760"
               width="2257"
               y="135"
               x="764" />
          </g>
        </g>
      </g>
    </g>
    <g
       class="Drawing"
       id="g3539"
       transform="matrix(0.0635887,0,0,0.06358869,-13.919872,775.67949)"
       style="visibility:visible;fill-rule:evenodd">
      <g
         id="g3541">
        <g
           style="fill:#6080c0;stroke:none"
           id="g3543">
          <path
             d="m 2405.9235,1529.4833 13.6794,-621.16272 456.7942,4.55981 18.2392,607.48331 614.0431,9.1196 0,464.9138 -623.1627,27.3589 -4.5598,1716.9665 -461.354,0 -18.2392,-1726.0862 -618.6029,-13.6794 0,-455.7942 z"
             id="path3545" />
        </g>
        <g
           style="fill:none;stroke:none"
           id="g3547">
          <rect
             x="1801"
             y="922"
             width="1695"
             height="2877"
             id="rect3549" />
        </g>
      </g>
    </g>
    <g
       transform="matrix(0.05904498,0,0,0.05904498,-1.8858787,784.00268)"
       class="Drawing"
       id="g3467"
       style="visibility:visible;fill-rule:evenodd">
      <g
         id="g3469">
        <g
           style="fill:#486090;stroke:none"
           id="g3471">
          <path
             d="m 3678,1424 0,685 -687,0 0,1872 -686,0 7.4661,-183 495.5339,0 0,-1872 687,0 0,-500.803 z"
             id="path3473" />
        </g>
        <g
           style="fill:none;stroke:none"
           id="g3475">
          <rect
             x="2305"
             y="1424"
             width="1374"
             height="2558"
             id="rect3477" />
        </g>
      </g>
    </g>
    <g
       transform="matrix(0.05904498,0,0,0.05904498,-1.8858787,784.00268)"
       class="Drawing"
       id="g3479"
       style="visibility:visible;fill-rule:evenodd">
      <g
         id="g3481">
        <g
           style="fill:#7298e4;stroke:none"
           id="g3483">
          <path
             d="m 3678,1424 -856.2648,0 -13.7352,183 687,0 z"
             id="path3485" />
        </g>
        <g
           style="fill:none;stroke:none"
           id="g3487">
          <rect
             x="2808"
             y="1424"
             width="872"
             height="184"
             id="rect3489" />
        </g>
      </g>
    </g>
    <g
       transform="matrix(0.05904498,0,0,0.05904498,-1.8858787,784.00268)"
       class="Drawing"
       id="g3491"
       style="visibility:visible;fill-rule:evenodd">
      <g
         id="g3493">
        <g
           style="fill:#486090;stroke:none"
           id="g3495">
          <path
             d="m 2991,1424 0,-685 -183,7.4661 0,860.5339 z"
             id="path3497" />
        </g>
        <g
           style="fill:none;stroke:none"
           id="g3499">
          <rect
             x="2808"
             y="739"
             width="185"
             height="869"
             id="rect3501" />
        </g>
      </g>
    </g>
    <g
       transform="matrix(0.05904498,0,0,0.05904498,-1.8858787,784.00268)"
       class="Drawing"
       id="g3503"
       style="visibility:visible;fill-rule:evenodd">
      <g
         id="g3505">
        <g
           style="fill:#7298e4;stroke:none"
           id="g3507">
          <path
             d="m 2991,739 -686,0 0,685 -687,0 0,685 183,-7.4661 0,-494.5339 687,0 0,-685 320,0 z"
             id="path3509" />
        </g>
        <g
           style="fill:none;stroke:none"
           id="g3511">
          <rect
             x="1618"
             y="738"
             width="1374"
             height="1372"
             id="rect3513" />
        </g>
      </g>
    </g>
    <g
       transform="matrix(0.05904498,0,0,0.05904498,-1.8858787,784.00268)"
       class="Drawing"
       id="g3515"
       style="visibility:visible;fill-rule:evenodd">
      <g
         id="g3517">
        <g
           style="fill:#486090;stroke:none"
           id="g3519">
          <path
             d="m 1618,2109 856.2648,0 13.7352,-183 -687,0 z"
             id="path3521" />
        </g>
        <g
           style="fill:none;stroke:none"
           id="g3523">
          <rect
             x="1618"
             y="1926"
             width="871"
             height="184"
             id="rect3525" />
        </g>
      </g>
    </g>
    <g
       transform="matrix(0.05904498,0,0,0.05904498,-1.8858787,784.00268)"
       class="Drawing"
       id="g3527"
       style="visibility:visible;fill-rule:evenodd">
      <g
         id="g3529">
        <g
           style="fill:#7298e4;stroke:none"
           id="g3531">
          <path
             d="m 2305,2109 0,1872 183,-183 0,-1872 -183,183 z"
             id="path3533" />
        </g>
        <g
           style="fill:none;stroke:none"
           id="g3535">
          <rect
             x="2304"
             y="1926"
             width="185"
             height="2056"
             id="rect3537" />
        </g>
      </g>
    </g>
  </g>
</svg>
